<svg xmlns="http://www.w3.org/2000/svg" xmlns:xlink="http://www.w3.org/1999/xlink" width="500" zoomAndPan="magnify" viewBox="0 0 375 374.999991" height="500" preserveAspectRatio="xMidYMid meet" version="1.0"><defs><g/><clipPath id="id1"><path d="M 99.285156 97.605469 L 275.535156 97.605469 L 275.535156 193 L 99.285156 193 Z M 99.285156 97.605469 " clip-rule="nonzero"/></clipPath></defs><g clip-path="url(#id1)"><path fill="#ffffff" d="M 237.703125 182.410156 C 224.46875 186.449219 215.371094 185.792969 211.589844 185.0625 L 211.589844 159.875 L 197.925781 145.101562 L 197.925781 185.957031 L 195.777344 185.957031 L 195.777344 139.164062 L 190.40625 139.164062 L 190.40625 111.9375 L 176.128906 97.625 L 176.128906 172.566406 L 174.097656 172.566406 L 174.097656 117.410156 L 157.398438 141.421875 L 157.398438 168.488281 C 152.613281 168.566406 145.746094 167.929688 137.121094 165.292969 C 113.957031 158.222656 99.285156 175.6875 99.285156 175.6875 C 106.867188 169.953125 117.078125 164.894531 135.3125 170.855469 C 148.546875 175.183594 158.210938 174.707031 163.234375 173.894531 L 163.234375 143.988281 L 168.265625 136.457031 L 168.265625 178.464844 L 181.960938 178.464844 L 181.960938 112.667969 L 184.570312 115.285156 L 184.570312 145.015625 L 189.945312 145.015625 L 189.945312 191.804688 L 203.761719 191.804688 L 203.761719 160.011719 L 205.753906 162.167969 L 205.753906 189.402344 L 207.683594 190.097656 C 208.179688 190.273438 219.957031 194.363281 239.511719 187.96875 C 257.746094 182.007812 267.953125 187.066406 275.535156 192.800781 C 275.535156 192.800781 260.867188 175.339844 237.703125 182.410156 " fill-opacity="1" fill-rule="nonzero"/></g><g fill="#ffffff" fill-opacity="1"><g transform="translate(65.654777, 245.488431)"><g><path d="M 8.0625 -16.5625 C 7.644531 -16.5625 7.285156 -16.410156 6.984375 -16.109375 C 6.691406 -15.816406 6.539062 -15.460938 6.53125 -15.046875 L 6.53125 -0.71875 C 6.53125 0.414062 6.222656 1.429688 5.609375 2.328125 C 5.003906 3.222656 4.257812 3.863281 3.375 4.25 C 2.5 4.632812 1.625 4.828125 0.75 4.828125 C 0.539062 4.828125 0.332031 4.816406 0.125 4.796875 L 0.125 4.578125 C 1.082031 4.179688 1.785156 3.488281 2.234375 2.5 C 2.691406 1.519531 2.921875 0.421875 2.921875 -0.796875 L 2.921875 -15.046875 C 2.910156 -15.640625 2.65625 -16.082031 2.15625 -16.375 C 1.914062 -16.5 1.660156 -16.5625 1.390625 -16.5625 L 1.078125 -16.5625 L 1.078125 -16.796875 L 8.375 -16.796875 L 8.375 -16.5625 Z M 8.0625 -16.5625 "/></g></g></g><g fill="#ffffff" fill-opacity="1"><g transform="translate(77.366795, 245.488431)"><g><path d="M 1.3125 -0.234375 C 1.726562 -0.234375 2.082031 -0.378906 2.375 -0.671875 C 2.675781 -0.972656 2.835938 -1.332031 2.859375 -1.75 L 2.859375 -15.125 C 2.804688 -15.675781 2.539062 -16.09375 2.0625 -16.375 C 1.820312 -16.5 1.570312 -16.5625 1.3125 -16.5625 L 1.015625 -16.5625 L 1.015625 -16.796875 L 10.203125 -16.796875 C 10.691406 -16.796875 11.234375 -16.84375 11.828125 -16.9375 C 12.421875 -17.039062 12.835938 -17.140625 13.078125 -17.234375 L 13.078125 -13.03125 L 12.84375 -13.03125 L 12.84375 -13.3125 C 12.84375 -14.039062 12.628906 -14.625 12.203125 -15.0625 C 11.773438 -15.5 11.203125 -15.734375 10.484375 -15.765625 L 6.453125 -15.765625 L 6.453125 -8.78125 L 9.625 -8.78125 C 10.21875 -8.800781 10.703125 -9.003906 11.078125 -9.390625 C 11.460938 -9.785156 11.65625 -10.269531 11.65625 -10.84375 L 11.65625 -11.0625 L 11.90625 -11.0625 L 11.90625 -5.515625 L 11.65625 -5.515625 L 11.65625 -5.71875 C 11.65625 -6.507812 11.335938 -7.097656 10.703125 -7.484375 C 10.378906 -7.660156 10.023438 -7.757812 9.640625 -7.78125 L 6.453125 -7.78125 L 6.453125 -1.03125 L 9.59375 -1.03125 C 10.769531 -1.03125 11.753906 -1.363281 12.546875 -2.03125 C 13.335938 -2.707031 13.921875 -3.660156 14.296875 -4.890625 L 14.546875 -4.890625 L 13.4375 0 L 1.015625 0 L 1.015625 -0.234375 Z M 1.3125 -0.234375 "/></g></g></g><g fill="#ffffff" fill-opacity="1"><g transform="translate(95.006828, 245.488431)"><g><path d="M 6.453125 -15.765625 L 6.453125 -8.78125 L 9.625 -8.78125 C 10.21875 -8.800781 10.703125 -9 11.078125 -9.375 C 11.460938 -9.757812 11.65625 -10.25 11.65625 -10.84375 L 11.65625 -11.0625 L 11.90625 -11.0625 L 11.90625 -5.515625 L 11.65625 -5.515625 L 11.65625 -5.71875 C 11.65625 -6.300781 11.46875 -6.785156 11.09375 -7.171875 C 10.71875 -7.554688 10.234375 -7.757812 9.640625 -7.78125 L 6.453125 -7.78125 L 6.453125 -1.75 C 6.453125 -1.15625 6.707031 -0.71875 7.21875 -0.4375 C 7.457031 -0.300781 7.710938 -0.234375 7.984375 -0.234375 L 8.28125 -0.234375 L 8.296875 0 L 1.015625 0 L 1.015625 -0.234375 L 1.3125 -0.234375 C 1.726562 -0.234375 2.082031 -0.378906 2.375 -0.671875 C 2.675781 -0.972656 2.835938 -1.332031 2.859375 -1.75 L 2.859375 -15.125 C 2.828125 -15.519531 2.660156 -15.859375 2.359375 -16.140625 C 2.066406 -16.421875 1.71875 -16.5625 1.3125 -16.5625 L 1.015625 -16.5625 L 1.015625 -16.796875 L 10.203125 -16.796875 C 10.984375 -16.796875 11.628906 -16.851562 12.140625 -16.96875 C 12.648438 -17.09375 12.960938 -17.179688 13.078125 -17.234375 L 13.078125 -13.171875 L 12.84375 -13.171875 L 12.84375 -13.421875 C 12.84375 -14.117188 12.632812 -14.679688 12.21875 -15.109375 C 11.8125 -15.535156 11.257812 -15.753906 10.5625 -15.765625 Z M 6.453125 -15.765625 "/></g></g></g><g fill="#ffffff" fill-opacity="1"><g transform="translate(111.782855, 245.488431)"><g><path d="M 1.3125 -0.234375 C 1.726562 -0.234375 2.082031 -0.378906 2.375 -0.671875 C 2.675781 -0.972656 2.835938 -1.332031 2.859375 -1.75 L 2.859375 -15.078125 C 2.835938 -15.492188 2.675781 -15.84375 2.375 -16.125 C 2.082031 -16.414062 1.726562 -16.5625 1.3125 -16.5625 L 1.015625 -16.5625 L 1.015625 -16.796875 L 8.296875 -16.796875 L 8.28125 -16.5625 L 7.984375 -16.5625 C 7.578125 -16.5625 7.21875 -16.414062 6.90625 -16.125 C 6.601562 -15.84375 6.453125 -15.492188 6.453125 -15.078125 L 6.453125 -1.75 C 6.453125 -1.332031 6.601562 -0.972656 6.90625 -0.671875 C 7.21875 -0.378906 7.578125 -0.234375 7.984375 -0.234375 L 8.28125 -0.234375 L 8.296875 0 L 1.015625 0 L 1.015625 -0.234375 Z M 1.3125 -0.234375 "/></g></g></g><g fill="#ffffff" fill-opacity="1"><g transform="translate(123.542869, 245.488431)"><g/></g></g><g fill="#ffffff" fill-opacity="1"><g transform="translate(132.038882, 245.488431)"><g><path d="M 22.734375 -0.234375 L 23.109375 -0.234375 L 23.109375 0 L 15.90625 0 L 15.90625 -0.21875 L 16.265625 -0.21875 C 16.546875 -0.21875 16.78125 -0.320312 16.96875 -0.53125 C 17.15625 -0.75 17.234375 -0.988281 17.203125 -1.25 L 16.265625 -9.953125 L 11.765625 -2.1875 C 11.171875 -1.195312 10.863281 -0.304688 10.84375 0.484375 L 10.609375 0.484375 L 4.4375 -9.890625 L 3.5 -1.25 C 3.46875 -0.988281 3.546875 -0.75 3.734375 -0.53125 C 3.929688 -0.320312 4.164062 -0.21875 4.4375 -0.21875 L 4.796875 -0.21875 L 4.796875 0 L -0.21875 0 L -0.21875 -0.234375 L 0.171875 -0.234375 C 0.617188 -0.234375 1.003906 -0.367188 1.328125 -0.640625 C 1.660156 -0.921875 1.859375 -1.289062 1.921875 -1.75 L 3.90625 -17.140625 L 4.125 -17.140625 L 11.5625 -4.890625 L 18.71875 -17.140625 L 18.9375 -17.140625 L 20.96875 -1.75 C 21.050781 -1.289062 21.253906 -0.921875 21.578125 -0.640625 C 21.910156 -0.367188 22.296875 -0.234375 22.734375 -0.234375 Z M 22.734375 -0.234375 "/></g></g></g><g fill="#ffffff" fill-opacity="1"><g transform="translate(157.40693, 245.488431)"><g><path d="M 17.71875 -0.234375 L 17.9375 -0.234375 L 17.9375 0 L 10.28125 0 L 10.28125 -0.234375 L 10.5 -0.234375 C 10.84375 -0.234375 11.097656 -0.34375 11.265625 -0.5625 C 11.441406 -0.78125 11.53125 -0.984375 11.53125 -1.171875 C 11.53125 -1.367188 11.488281 -1.5625 11.40625 -1.75 L 10.234375 -4.703125 L 4.609375 -4.703125 L 3.375 -1.75 C 3.289062 -1.539062 3.25 -1.34375 3.25 -1.15625 C 3.25 -0.976562 3.332031 -0.78125 3.5 -0.5625 C 3.664062 -0.34375 3.929688 -0.234375 4.296875 -0.234375 L 4.5 -0.234375 L 4.5 0 L -0.640625 0 L -0.640625 -0.234375 L -0.421875 -0.234375 C -0.0546875 -0.234375 0.304688 -0.34375 0.671875 -0.5625 C 1.046875 -0.789062 1.351562 -1.128906 1.59375 -1.578125 L 7.140625 -14.140625 C 7.890625 -15.722656 8.285156 -16.769531 8.328125 -17.28125 L 8.546875 -17.28125 L 15.671875 -1.625 C 15.921875 -1.164062 16.226562 -0.816406 16.59375 -0.578125 C 16.957031 -0.347656 17.332031 -0.234375 17.71875 -0.234375 Z M 5.015625 -5.71875 L 9.828125 -5.71875 L 7.5 -11.609375 Z M 5.015625 -5.71875 "/></g></g></g><g fill="#ffffff" fill-opacity="1"><g transform="translate(177.086967, 245.488431)"><g><path d="M 7.625 -15.75 L 6.59375 -15.75 C 6.5625 -15.75 6.539062 -15.75 6.53125 -15.75 L 6.53125 -1.75 C 6.539062 -1.15625 6.796875 -0.71875 7.296875 -0.4375 C 7.535156 -0.300781 7.789062 -0.234375 8.0625 -0.234375 L 8.375 -0.234375 L 8.375 0 L 1.078125 0 L 1.078125 -0.234375 L 1.390625 -0.234375 C 1.960938 -0.234375 2.40625 -0.484375 2.71875 -0.984375 C 2.84375 -1.203125 2.910156 -1.453125 2.921875 -1.734375 L 2.921875 -15.046875 C 2.910156 -15.460938 2.753906 -15.816406 2.453125 -16.109375 C 2.160156 -16.410156 1.804688 -16.5625 1.390625 -16.5625 L 1.078125 -16.5625 L 1.078125 -16.796875 L 9.3125 -16.796875 C 10.863281 -16.796875 12.175781 -16.460938 13.25 -15.796875 C 13.789062 -15.453125 14.222656 -14.976562 14.546875 -14.375 C 14.867188 -13.78125 15.03125 -13.101562 15.03125 -12.34375 C 15.03125 -11.582031 14.894531 -10.878906 14.625 -10.234375 C 14.363281 -9.597656 13.925781 -9.039062 13.3125 -8.5625 C 12.695312 -8.082031 11.957031 -7.796875 11.09375 -7.703125 C 12.019531 -7.398438 12.832031 -6.695312 13.53125 -5.59375 C 15.257812 -2.820312 16.539062 -1.171875 17.375 -0.640625 C 17.789062 -0.390625 18.3125 -0.253906 18.9375 -0.234375 L 18.9375 0 L 16.578125 0 C 15.222656 0 14.085938 -0.1875 13.171875 -0.5625 C 12.265625 -0.9375 11.519531 -1.582031 10.9375 -2.5 C 10.65625 -2.957031 10.289062 -3.65625 9.84375 -4.59375 C 9.394531 -5.53125 9.097656 -6.195312 8.953125 -6.59375 C 8.515625 -7.5625 7.96875 -8.097656 7.3125 -8.203125 L 7.3125 -8.453125 L 8.0625 -8.453125 C 8.78125 -8.453125 9.414062 -8.664062 9.96875 -9.09375 C 10.519531 -9.53125 10.894531 -10.234375 11.09375 -11.203125 C 11.15625 -11.546875 11.1875 -11.8125 11.1875 -12 C 11.1875 -13.3125 10.921875 -14.257812 10.390625 -14.84375 C 9.859375 -15.425781 9.179688 -15.726562 8.359375 -15.75 C 8.191406 -15.75 7.945312 -15.75 7.625 -15.75 Z M 7.625 -15.75 "/></g></g></g><g fill="#ffffff" fill-opacity="1"><g transform="translate(197.487009, 245.488431)"><g><path d="M 1.3125 -0.234375 C 1.726562 -0.234375 2.082031 -0.378906 2.375 -0.671875 C 2.675781 -0.972656 2.835938 -1.332031 2.859375 -1.75 L 2.859375 -15.078125 C 2.835938 -15.648438 2.570312 -16.082031 2.0625 -16.375 C 1.84375 -16.5 1.59375 -16.5625 1.3125 -16.5625 L 1.015625 -16.5625 L 1.015625 -16.796875 L 8.296875 -16.796875 L 8.28125 -16.5625 L 7.984375 -16.5625 C 7.410156 -16.5625 6.972656 -16.3125 6.671875 -15.8125 C 6.523438 -15.59375 6.453125 -15.347656 6.453125 -15.078125 L 6.453125 -1.75 C 6.453125 -1.332031 6.601562 -0.972656 6.90625 -0.671875 C 7.21875 -0.378906 7.578125 -0.234375 7.984375 -0.234375 L 8.28125 -0.234375 L 8.296875 0 L 1.015625 0 L 1.015625 -0.234375 Z M 18.640625 0 L 16.6875 0 C 14.25 0 12.523438 -0.660156 11.515625 -1.984375 C 8.648438 -5.878906 7.21875 -7.859375 7.21875 -7.921875 L 12.90625 -15.453125 C 13.039062 -15.617188 13.109375 -15.765625 13.109375 -15.890625 C 13.109375 -16.015625 13.082031 -16.125 13.03125 -16.21875 C 12.90625 -16.457031 12.679688 -16.578125 12.359375 -16.578125 L 12.125 -16.578125 L 12.125 -16.796875 L 17.609375 -16.796875 L 17.609375 -16.578125 L 17.515625 -16.578125 C 16.441406 -16.578125 15.570312 -16.195312 14.90625 -15.4375 L 10.21875 -9.890625 L 16.203125 -1.734375 C 16.929688 -0.765625 17.742188 -0.265625 18.640625 -0.234375 Z M 18.640625 0 "/></g></g></g><g fill="#ffffff" fill-opacity="1"><g transform="translate(218.127045, 245.488431)"><g><path d="M 1.3125 -0.234375 C 1.726562 -0.234375 2.082031 -0.378906 2.375 -0.671875 C 2.675781 -0.972656 2.835938 -1.332031 2.859375 -1.75 L 2.859375 -15.125 C 2.804688 -15.675781 2.539062 -16.09375 2.0625 -16.375 C 1.820312 -16.5 1.570312 -16.5625 1.3125 -16.5625 L 1.015625 -16.5625 L 1.015625 -16.796875 L 10.203125 -16.796875 C 10.691406 -16.796875 11.234375 -16.84375 11.828125 -16.9375 C 12.421875 -17.039062 12.835938 -17.140625 13.078125 -17.234375 L 13.078125 -13.03125 L 12.84375 -13.03125 L 12.84375 -13.3125 C 12.84375 -14.039062 12.628906 -14.625 12.203125 -15.0625 C 11.773438 -15.5 11.203125 -15.734375 10.484375 -15.765625 L 6.453125 -15.765625 L 6.453125 -8.78125 L 9.625 -8.78125 C 10.21875 -8.800781 10.703125 -9.003906 11.078125 -9.390625 C 11.460938 -9.785156 11.65625 -10.269531 11.65625 -10.84375 L 11.65625 -11.0625 L 11.90625 -11.0625 L 11.90625 -5.515625 L 11.65625 -5.515625 L 11.65625 -5.71875 C 11.65625 -6.507812 11.335938 -7.097656 10.703125 -7.484375 C 10.378906 -7.660156 10.023438 -7.757812 9.640625 -7.78125 L 6.453125 -7.78125 L 6.453125 -1.03125 L 9.59375 -1.03125 C 10.769531 -1.03125 11.753906 -1.363281 12.546875 -2.03125 C 13.335938 -2.707031 13.921875 -3.660156 14.296875 -4.890625 L 14.546875 -4.890625 L 13.4375 0 L 1.015625 0 L 1.015625 -0.234375 Z M 1.3125 -0.234375 "/></g></g></g><g fill="#ffffff" fill-opacity="1"><g transform="translate(235.767082, 245.488431)"><g><path d="M 9.8125 -15.8125 L 9.8125 -1.734375 C 9.832031 -1.316406 9.988281 -0.960938 10.28125 -0.671875 C 10.582031 -0.378906 10.941406 -0.234375 11.359375 -0.234375 L 11.640625 -0.234375 L 11.65625 0 L 4.375 0 L 4.375 -0.234375 L 4.6875 -0.234375 C 5.082031 -0.234375 5.425781 -0.378906 5.71875 -0.671875 C 6.019531 -0.960938 6.1875 -1.304688 6.21875 -1.703125 L 6.21875 -15.8125 L 2.96875 -15.8125 C 2.238281 -15.800781 1.65625 -15.570312 1.21875 -15.125 C 0.789062 -14.675781 0.578125 -14.09375 0.578125 -13.375 L 0.578125 -13.078125 L 0.34375 -13.078125 L 0.34375 -17.25 C 0.5625 -17.15625 0.960938 -17.0625 1.546875 -16.96875 C 2.128906 -16.875 2.671875 -16.828125 3.171875 -16.828125 L 12.84375 -16.828125 C 13.625 -16.835938 14.257812 -16.898438 14.75 -17.015625 C 15.25 -17.128906 15.554688 -17.207031 15.671875 -17.25 L 15.671875 -13.078125 L 15.4375 -13.078125 L 15.4375 -13.375 C 15.4375 -14.09375 15.21875 -14.675781 14.78125 -15.125 C 14.351562 -15.570312 13.769531 -15.800781 13.03125 -15.8125 Z M 9.8125 -15.8125 "/></g></g></g><g fill="#ffffff" fill-opacity="1"><g transform="translate(254.247114, 245.488431)"><g><path d="M 1.3125 -0.234375 C 1.726562 -0.234375 2.082031 -0.378906 2.375 -0.671875 C 2.675781 -0.972656 2.835938 -1.332031 2.859375 -1.75 L 2.859375 -15.078125 C 2.835938 -15.492188 2.675781 -15.84375 2.375 -16.125 C 2.082031 -16.414062 1.726562 -16.5625 1.3125 -16.5625 L 1.015625 -16.5625 L 1.015625 -16.796875 L 8.296875 -16.796875 L 8.28125 -16.5625 L 7.984375 -16.5625 C 7.578125 -16.5625 7.21875 -16.414062 6.90625 -16.125 C 6.601562 -15.84375 6.453125 -15.492188 6.453125 -15.078125 L 6.453125 -1.75 C 6.453125 -1.332031 6.601562 -0.972656 6.90625 -0.671875 C 7.21875 -0.378906 7.578125 -0.234375 7.984375 -0.234375 L 8.28125 -0.234375 L 8.296875 0 L 1.015625 0 L 1.015625 -0.234375 Z M 1.3125 -0.234375 "/></g></g></g><g fill="#ffffff" fill-opacity="1"><g transform="translate(266.007119, 245.488431)"><g><path d="M 19.609375 -16.5625 C 19.210938 -16.5625 18.867188 -16.421875 18.578125 -16.140625 C 18.285156 -15.859375 18.132812 -15.519531 18.125 -15.125 L 18.125 -2.734375 C 18.125 -1.660156 18.195312 -0.757812 18.34375 -0.03125 L 18.40625 0.34375 L 18.1875 0.34375 L 6.078125 -11.203125 L 6.078125 -1.6875 C 6.078125 -1.28125 6.21875 -0.9375 6.5 -0.65625 C 6.789062 -0.375 7.132812 -0.234375 7.53125 -0.234375 L 7.984375 -0.234375 L 7.984375 0 L 0.71875 0 L 0.71875 -0.234375 L 1.15625 -0.234375 C 1.570312 -0.234375 1.921875 -0.375 2.203125 -0.65625 C 2.492188 -0.9375 2.640625 -1.285156 2.640625 -1.703125 L 2.640625 -14.15625 C 2.640625 -15.21875 2.566406 -16.097656 2.421875 -16.796875 L 2.375 -17.15625 L 2.59375 -17.15625 L 14.71875 -5.609375 L 14.71875 -15.09375 C 14.695312 -15.507812 14.539062 -15.859375 14.25 -16.140625 C 13.96875 -16.421875 13.625 -16.5625 13.21875 -16.5625 L 12.796875 -16.5625 L 12.796875 -16.796875 L 20.0625 -16.796875 L 20.0625 -16.5625 Z M 19.609375 -16.5625 "/></g></g></g><g fill="#ffffff" fill-opacity="1"><g transform="translate(289.263161, 245.488431)"><g><path d="M 19.65625 -7.796875 L 19.296875 -7.796875 C 18.910156 -7.796875 18.613281 -7.703125 18.40625 -7.515625 C 18.195312 -7.335938 18.09375 -7.070312 18.09375 -6.71875 L 18.09375 -2.765625 C 17.46875 -1.941406 16.4375 -1.21875 15 -0.59375 C 13.5625 0.03125 11.945312 0.34375 10.15625 0.34375 C 7.414062 0.34375 5.21875 -0.441406 3.5625 -2.015625 C 1.90625 -3.597656 1.078125 -5.726562 1.078125 -8.40625 C 1.078125 -11.09375 1.90625 -13.21875 3.5625 -14.78125 C 5.21875 -16.351562 7.460938 -17.140625 10.296875 -17.140625 C 11.578125 -17.140625 12.816406 -17.015625 14.015625 -16.765625 C 15.210938 -16.515625 16.179688 -16.207031 16.921875 -15.84375 L 16.96875 -11.71875 L 16.75 -11.71875 C 16.332031 -13.269531 15.617188 -14.390625 14.609375 -15.078125 C 13.609375 -15.773438 12.410156 -16.125 11.015625 -16.125 C 9.078125 -16.125 7.585938 -15.429688 6.546875 -14.046875 C 5.503906 -12.660156 4.984375 -10.765625 4.984375 -8.359375 C 4.984375 -5.953125 5.457031 -4.066406 6.40625 -2.703125 C 7.363281 -1.347656 8.71875 -0.671875 10.46875 -0.671875 C 11.726562 -0.671875 12.78125 -1.03125 13.625 -1.75 C 14.039062 -2.113281 14.347656 -2.546875 14.546875 -3.046875 L 14.546875 -6.71875 C 14.546875 -7.070312 14.4375 -7.335938 14.21875 -7.515625 C 14 -7.703125 13.691406 -7.796875 13.296875 -7.796875 L 12.90625 -7.796875 L 12.90625 -8.046875 L 19.65625 -8.046875 Z M 19.65625 -7.796875 "/></g></g></g><g fill="#ffffff" fill-opacity="1"><g transform="translate(103.455528, 275.526823)"><g><path d="M 1.984375 0 L 1.984375 -2.125 L 0.15625 -5.59375 L 0.921875 -5.59375 L 2.3125 -2.765625 L 3.71875 -5.59375 L 4.46875 -5.59375 L 2.65625 -2.125 L 2.65625 0 Z M 1.984375 0 "/></g></g></g><g fill="#ffffff" fill-opacity="1"><g transform="translate(111.28758, 275.526823)"><g><path d="M 3.140625 0.09375 C 2.585938 0.09375 2.101562 -0.0234375 1.6875 -0.265625 C 1.28125 -0.503906 0.957031 -0.84375 0.71875 -1.28125 C 0.488281 -1.71875 0.375 -2.222656 0.375 -2.796875 C 0.375 -3.367188 0.488281 -3.867188 0.71875 -4.296875 C 0.957031 -4.734375 1.28125 -5.078125 1.6875 -5.328125 C 2.101562 -5.578125 2.585938 -5.703125 3.140625 -5.703125 C 3.691406 -5.703125 4.171875 -5.578125 4.578125 -5.328125 C 4.992188 -5.078125 5.316406 -4.734375 5.546875 -4.296875 C 5.773438 -3.867188 5.890625 -3.367188 5.890625 -2.796875 C 5.890625 -2.222656 5.773438 -1.71875 5.546875 -1.28125 C 5.316406 -0.84375 4.992188 -0.503906 4.578125 -0.265625 C 4.171875 -0.0234375 3.691406 0.09375 3.140625 0.09375 Z M 3.140625 -0.5 C 3.546875 -0.5 3.90625 -0.585938 4.21875 -0.765625 C 4.53125 -0.953125 4.769531 -1.21875 4.9375 -1.5625 C 5.113281 -1.90625 5.203125 -2.316406 5.203125 -2.796875 C 5.203125 -3.273438 5.113281 -3.6875 4.9375 -4.03125 C 4.769531 -4.375 4.53125 -4.632812 4.21875 -4.8125 C 3.90625 -5 3.546875 -5.09375 3.140625 -5.09375 C 2.722656 -5.09375 2.359375 -5 2.046875 -4.8125 C 1.734375 -4.632812 1.488281 -4.375 1.3125 -4.03125 C 1.144531 -3.6875 1.0625 -3.273438 1.0625 -2.796875 C 1.0625 -2.316406 1.144531 -1.90625 1.3125 -1.5625 C 1.488281 -1.21875 1.734375 -0.953125 2.046875 -0.765625 C 2.359375 -0.585938 2.722656 -0.5 3.140625 -0.5 Z M 3.140625 -0.5 "/></g></g></g><g fill="#ffffff" fill-opacity="1"><g transform="translate(120.759653, 275.526823)"><g><path d="M 2.609375 0.09375 C 2.234375 0.09375 1.890625 0.0195312 1.578125 -0.125 C 1.265625 -0.28125 1.015625 -0.515625 0.828125 -0.828125 C 0.640625 -1.148438 0.546875 -1.5625 0.546875 -2.0625 L 0.546875 -5.59375 L 1.21875 -5.59375 L 1.21875 -2.0625 C 1.21875 -1.507812 1.347656 -1.109375 1.609375 -0.859375 C 1.867188 -0.617188 2.207031 -0.5 2.625 -0.5 C 3.050781 -0.5 3.390625 -0.617188 3.640625 -0.859375 C 3.898438 -1.109375 4.03125 -1.507812 4.03125 -2.0625 L 4.03125 -5.59375 L 4.703125 -5.59375 L 4.703125 -2.0625 C 4.703125 -1.5625 4.609375 -1.148438 4.421875 -0.828125 C 4.234375 -0.515625 3.984375 -0.28125 3.671875 -0.125 C 3.359375 0.0195312 3.003906 0.09375 2.609375 0.09375 Z M 2.609375 0.09375 "/></g></g></g><g fill="#ffffff" fill-opacity="1"><g transform="translate(129.207716, 275.526823)"><g><path d="M 0.59375 0 L 0.59375 -5.59375 L 2.40625 -5.59375 C 2.84375 -5.59375 3.195312 -5.519531 3.46875 -5.375 C 3.75 -5.238281 3.953125 -5.046875 4.078125 -4.796875 C 4.210938 -4.546875 4.28125 -4.265625 4.28125 -3.953125 C 4.28125 -3.609375 4.1875 -3.289062 4 -3 C 3.8125 -2.71875 3.519531 -2.519531 3.125 -2.40625 L 4.34375 0 L 3.546875 0 L 2.421875 -2.3125 L 1.265625 -2.3125 L 1.265625 0 Z M 1.265625 -2.84375 L 2.359375 -2.84375 C 2.785156 -2.84375 3.097656 -2.945312 3.296875 -3.15625 C 3.492188 -3.363281 3.59375 -3.628906 3.59375 -3.953125 C 3.59375 -4.285156 3.492188 -4.546875 3.296875 -4.734375 C 3.109375 -4.929688 2.789062 -5.03125 2.34375 -5.03125 L 1.265625 -5.03125 Z M 1.265625 -2.84375 "/></g></g></g><g fill="#ffffff" fill-opacity="1"><g transform="translate(137.151768, 275.526823)"><g/></g></g><g fill="#ffffff" fill-opacity="1"><g transform="translate(142.471799, 275.526823)"><g><path d="M 0.59375 0 L 0.59375 -5.59375 L 2.3125 -5.59375 C 3.300781 -5.59375 4.023438 -5.34375 4.484375 -4.84375 C 4.953125 -4.34375 5.1875 -3.65625 5.1875 -2.78125 C 5.1875 -1.925781 4.953125 -1.25 4.484375 -0.75 C 4.023438 -0.25 3.300781 0 2.3125 0 Z M 1.265625 -0.5625 L 2.296875 -0.5625 C 2.835938 -0.5625 3.269531 -0.648438 3.59375 -0.828125 C 3.914062 -1.003906 4.144531 -1.257812 4.28125 -1.59375 C 4.425781 -1.925781 4.5 -2.320312 4.5 -2.78125 C 4.5 -3.25 4.425781 -3.648438 4.28125 -3.984375 C 4.144531 -4.328125 3.914062 -4.585938 3.59375 -4.765625 C 3.269531 -4.953125 2.835938 -5.046875 2.296875 -5.046875 L 1.265625 -5.046875 Z M 1.265625 -0.5625 "/></g></g></g><g fill="#ffffff" fill-opacity="1"><g transform="translate(151.239871, 275.526823)"><g><path d="M 0.59375 0 L 0.59375 -5.59375 L 2.40625 -5.59375 C 2.84375 -5.59375 3.195312 -5.519531 3.46875 -5.375 C 3.75 -5.238281 3.953125 -5.046875 4.078125 -4.796875 C 4.210938 -4.546875 4.28125 -4.265625 4.28125 -3.953125 C 4.28125 -3.609375 4.1875 -3.289062 4 -3 C 3.8125 -2.71875 3.519531 -2.519531 3.125 -2.40625 L 4.34375 0 L 3.546875 0 L 2.421875 -2.3125 L 1.265625 -2.3125 L 1.265625 0 Z M 1.265625 -2.84375 L 2.359375 -2.84375 C 2.785156 -2.84375 3.097656 -2.945312 3.296875 -3.15625 C 3.492188 -3.363281 3.59375 -3.628906 3.59375 -3.953125 C 3.59375 -4.285156 3.492188 -4.546875 3.296875 -4.734375 C 3.109375 -4.929688 2.789062 -5.03125 2.34375 -5.03125 L 1.265625 -5.03125 Z M 1.265625 -2.84375 "/></g></g></g><g fill="#ffffff" fill-opacity="1"><g transform="translate(159.183926, 275.526823)"><g><path d="M 0.59375 0 L 0.59375 -5.59375 L 4.0625 -5.59375 L 4.0625 -5.046875 L 1.265625 -5.046875 L 1.265625 -3.09375 L 3.8125 -3.09375 L 3.8125 -2.546875 L 1.265625 -2.546875 L 1.265625 -0.546875 L 4.0625 -0.546875 L 4.0625 0 Z M 0.59375 0 "/></g></g></g><g fill="#ffffff" fill-opacity="1"><g transform="translate(166.895985, 275.526823)"><g><path d="M 0.234375 0 L 2.296875 -5.59375 L 3.015625 -5.59375 L 5.078125 0 L 4.359375 0 L 3.84375 -1.4375 L 1.46875 -1.4375 L 0.9375 0 Z M 1.65625 -1.984375 L 3.640625 -1.984375 L 2.65625 -4.75 Z M 1.65625 -1.984375 "/></g></g></g><g fill="#ffffff" fill-opacity="1"><g transform="translate(175.408055, 275.526823)"><g><path d="M 0.59375 0 L 0.59375 -5.59375 L 1.375 -5.59375 L 3.390625 -1.703125 L 5.390625 -5.59375 L 6.1875 -5.59375 L 6.1875 0 L 5.515625 0 L 5.515625 -4.40625 L 3.640625 -0.796875 L 3.140625 -0.796875 L 1.265625 -4.390625 L 1.265625 0 Z M 0.59375 0 "/></g></g></g><g fill="#ffffff" fill-opacity="1"><g transform="translate(185.384138, 275.526823)"><g/></g></g><g fill="#ffffff" fill-opacity="1"><g transform="translate(190.704172, 275.526823)"><g><path d="M 0.59375 0 L 0.59375 -5.59375 L 1.265625 -5.59375 L 1.265625 0 Z M 0.59375 0 "/></g></g></g><g fill="#ffffff" fill-opacity="1"><g transform="translate(195.760207, 275.526823)"><g><path d="M 2.375 0.09375 C 1.96875 0.09375 1.609375 0.0195312 1.296875 -0.125 C 0.992188 -0.28125 0.757812 -0.488281 0.59375 -0.75 C 0.4375 -1.019531 0.359375 -1.332031 0.359375 -1.6875 L 1.0625 -1.6875 C 1.0625 -1.46875 1.109375 -1.265625 1.203125 -1.078125 C 1.304688 -0.890625 1.453125 -0.738281 1.640625 -0.625 C 1.835938 -0.519531 2.082031 -0.46875 2.375 -0.46875 C 2.75 -0.46875 3.039062 -0.554688 3.25 -0.734375 C 3.457031 -0.921875 3.5625 -1.148438 3.5625 -1.421875 C 3.5625 -1.648438 3.515625 -1.832031 3.421875 -1.96875 C 3.328125 -2.101562 3.195312 -2.210938 3.03125 -2.296875 C 2.875 -2.378906 2.6875 -2.453125 2.46875 -2.515625 C 2.257812 -2.578125 2.039062 -2.648438 1.8125 -2.734375 C 1.382812 -2.878906 1.066406 -3.0625 0.859375 -3.28125 C 0.648438 -3.507812 0.546875 -3.800781 0.546875 -4.15625 C 0.535156 -4.457031 0.601562 -4.722656 0.75 -4.953125 C 0.894531 -5.179688 1.097656 -5.363281 1.359375 -5.5 C 1.628906 -5.632812 1.941406 -5.703125 2.296875 -5.703125 C 2.660156 -5.703125 2.972656 -5.632812 3.234375 -5.5 C 3.492188 -5.363281 3.695312 -5.175781 3.84375 -4.9375 C 4 -4.707031 4.078125 -4.441406 4.078125 -4.140625 L 3.375 -4.140625 C 3.375 -4.296875 3.332031 -4.445312 3.25 -4.59375 C 3.175781 -4.75 3.054688 -4.875 2.890625 -4.96875 C 2.722656 -5.070312 2.519531 -5.125 2.28125 -5.125 C 1.976562 -5.125 1.726562 -5.039062 1.53125 -4.875 C 1.332031 -4.71875 1.234375 -4.5 1.234375 -4.21875 C 1.234375 -3.976562 1.300781 -3.796875 1.4375 -3.671875 C 1.570312 -3.546875 1.765625 -3.441406 2.015625 -3.359375 C 2.265625 -3.273438 2.546875 -3.179688 2.859375 -3.078125 C 3.128906 -2.972656 3.367188 -2.859375 3.578125 -2.734375 C 3.796875 -2.609375 3.960938 -2.441406 4.078125 -2.234375 C 4.203125 -2.035156 4.265625 -1.78125 4.265625 -1.46875 C 4.265625 -1.195312 4.191406 -0.941406 4.046875 -0.703125 C 3.910156 -0.472656 3.703125 -0.28125 3.421875 -0.125 C 3.148438 0.0195312 2.800781 0.09375 2.375 0.09375 Z M 2.375 0.09375 "/></g></g></g><g fill="#ffffff" fill-opacity="1"><g transform="translate(203.584266, 275.526823)"><g/></g></g><g fill="#ffffff" fill-opacity="1"><g transform="translate(208.9043, 275.526823)"><g><path d="M 3.140625 0.09375 C 2.585938 0.09375 2.101562 -0.0234375 1.6875 -0.265625 C 1.28125 -0.503906 0.957031 -0.84375 0.71875 -1.28125 C 0.488281 -1.71875 0.375 -2.222656 0.375 -2.796875 C 0.375 -3.367188 0.488281 -3.867188 0.71875 -4.296875 C 0.957031 -4.734375 1.28125 -5.078125 1.6875 -5.328125 C 2.101562 -5.578125 2.585938 -5.703125 3.140625 -5.703125 C 3.691406 -5.703125 4.171875 -5.578125 4.578125 -5.328125 C 4.992188 -5.078125 5.316406 -4.734375 5.546875 -4.296875 C 5.773438 -3.867188 5.890625 -3.367188 5.890625 -2.796875 C 5.890625 -2.222656 5.773438 -1.71875 5.546875 -1.28125 C 5.316406 -0.84375 4.992188 -0.503906 4.578125 -0.265625 C 4.171875 -0.0234375 3.691406 0.09375 3.140625 0.09375 Z M 3.140625 -0.5 C 3.546875 -0.5 3.90625 -0.585938 4.21875 -0.765625 C 4.53125 -0.953125 4.769531 -1.21875 4.9375 -1.5625 C 5.113281 -1.90625 5.203125 -2.316406 5.203125 -2.796875 C 5.203125 -3.273438 5.113281 -3.6875 4.9375 -4.03125 C 4.769531 -4.375 4.53125 -4.632812 4.21875 -4.8125 C 3.90625 -5 3.546875 -5.09375 3.140625 -5.09375 C 2.722656 -5.09375 2.359375 -5 2.046875 -4.8125 C 1.734375 -4.632812 1.488281 -4.375 1.3125 -4.03125 C 1.144531 -3.6875 1.0625 -3.273438 1.0625 -2.796875 C 1.0625 -2.316406 1.144531 -1.90625 1.3125 -1.5625 C 1.488281 -1.21875 1.734375 -0.953125 2.046875 -0.765625 C 2.359375 -0.585938 2.722656 -0.5 3.140625 -0.5 Z M 3.140625 -0.5 "/></g></g></g><g fill="#ffffff" fill-opacity="1"><g transform="translate(218.376374, 275.526823)"><g><path d="M 2.609375 0.09375 C 2.234375 0.09375 1.890625 0.0195312 1.578125 -0.125 C 1.265625 -0.28125 1.015625 -0.515625 0.828125 -0.828125 C 0.640625 -1.148438 0.546875 -1.5625 0.546875 -2.0625 L 0.546875 -5.59375 L 1.21875 -5.59375 L 1.21875 -2.0625 C 1.21875 -1.507812 1.347656 -1.109375 1.609375 -0.859375 C 1.867188 -0.617188 2.207031 -0.5 2.625 -0.5 C 3.050781 -0.5 3.390625 -0.617188 3.640625 -0.859375 C 3.898438 -1.109375 4.03125 -1.507812 4.03125 -2.0625 L 4.03125 -5.59375 L 4.703125 -5.59375 L 4.703125 -2.0625 C 4.703125 -1.5625 4.609375 -1.148438 4.421875 -0.828125 C 4.234375 -0.515625 3.984375 -0.28125 3.671875 -0.125 C 3.359375 0.0195312 3.003906 0.09375 2.609375 0.09375 Z M 2.609375 0.09375 "/></g></g></g><g fill="#ffffff" fill-opacity="1"><g transform="translate(226.824438, 275.526823)"><g><path d="M 0.59375 0 L 0.59375 -5.59375 L 2.40625 -5.59375 C 2.84375 -5.59375 3.195312 -5.519531 3.46875 -5.375 C 3.75 -5.238281 3.953125 -5.046875 4.078125 -4.796875 C 4.210938 -4.546875 4.28125 -4.265625 4.28125 -3.953125 C 4.28125 -3.609375 4.1875 -3.289062 4 -3 C 3.8125 -2.71875 3.519531 -2.519531 3.125 -2.40625 L 4.34375 0 L 3.546875 0 L 2.421875 -2.3125 L 1.265625 -2.3125 L 1.265625 0 Z M 1.265625 -2.84375 L 2.359375 -2.84375 C 2.785156 -2.84375 3.097656 -2.945312 3.296875 -3.15625 C 3.492188 -3.363281 3.59375 -3.628906 3.59375 -3.953125 C 3.59375 -4.285156 3.492188 -4.546875 3.296875 -4.734375 C 3.109375 -4.929688 2.789062 -5.03125 2.34375 -5.03125 L 1.265625 -5.03125 Z M 1.265625 -2.84375 "/></g></g></g><g fill="#ffffff" fill-opacity="1"><g transform="translate(234.768493, 275.526823)"><g/></g></g><g fill="#ffffff" fill-opacity="1"><g transform="translate(240.088526, 275.526823)"><g><path d="M 3 0.09375 C 2.476562 0.09375 2.019531 -0.0234375 1.625 -0.265625 C 1.226562 -0.503906 0.921875 -0.84375 0.703125 -1.28125 C 0.484375 -1.71875 0.375 -2.222656 0.375 -2.796875 C 0.375 -3.359375 0.484375 -3.859375 0.703125 -4.296875 C 0.929688 -4.734375 1.25 -5.078125 1.65625 -5.328125 C 2.0625 -5.578125 2.539062 -5.703125 3.09375 -5.703125 C 3.726562 -5.703125 4.253906 -5.546875 4.671875 -5.234375 C 5.085938 -4.929688 5.359375 -4.515625 5.484375 -3.984375 L 4.703125 -3.984375 C 4.628906 -4.316406 4.453125 -4.582031 4.171875 -4.78125 C 3.890625 -4.976562 3.53125 -5.078125 3.09375 -5.078125 C 2.6875 -5.078125 2.328125 -4.984375 2.015625 -4.796875 C 1.710938 -4.617188 1.476562 -4.359375 1.3125 -4.015625 C 1.144531 -3.671875 1.0625 -3.265625 1.0625 -2.796875 C 1.0625 -2.316406 1.144531 -1.90625 1.3125 -1.5625 C 1.476562 -1.226562 1.707031 -0.96875 2 -0.78125 C 2.289062 -0.59375 2.632812 -0.5 3.03125 -0.5 C 3.625 -0.5 4.070312 -0.671875 4.375 -1.015625 C 4.675781 -1.367188 4.847656 -1.851562 4.890625 -2.46875 L 3.28125 -2.46875 L 3.28125 -2.984375 L 5.578125 -2.984375 L 5.578125 0 L 4.96875 0 L 4.90625 -0.921875 C 4.707031 -0.597656 4.460938 -0.347656 4.171875 -0.171875 C 3.878906 0.00390625 3.488281 0.09375 3 0.09375 Z M 3 0.09375 "/></g></g></g><g fill="#ffffff" fill-opacity="1"><g transform="translate(249.344597, 275.526823)"><g><path d="M 3.140625 0.09375 C 2.585938 0.09375 2.101562 -0.0234375 1.6875 -0.265625 C 1.28125 -0.503906 0.957031 -0.84375 0.71875 -1.28125 C 0.488281 -1.71875 0.375 -2.222656 0.375 -2.796875 C 0.375 -3.367188 0.488281 -3.867188 0.71875 -4.296875 C 0.957031 -4.734375 1.28125 -5.078125 1.6875 -5.328125 C 2.101562 -5.578125 2.585938 -5.703125 3.140625 -5.703125 C 3.691406 -5.703125 4.171875 -5.578125 4.578125 -5.328125 C 4.992188 -5.078125 5.316406 -4.734375 5.546875 -4.296875 C 5.773438 -3.867188 5.890625 -3.367188 5.890625 -2.796875 C 5.890625 -2.222656 5.773438 -1.71875 5.546875 -1.28125 C 5.316406 -0.84375 4.992188 -0.503906 4.578125 -0.265625 C 4.171875 -0.0234375 3.691406 0.09375 3.140625 0.09375 Z M 3.140625 -0.5 C 3.546875 -0.5 3.90625 -0.585938 4.21875 -0.765625 C 4.53125 -0.953125 4.769531 -1.21875 4.9375 -1.5625 C 5.113281 -1.90625 5.203125 -2.316406 5.203125 -2.796875 C 5.203125 -3.273438 5.113281 -3.6875 4.9375 -4.03125 C 4.769531 -4.375 4.53125 -4.632812 4.21875 -4.8125 C 3.90625 -5 3.546875 -5.09375 3.140625 -5.09375 C 2.722656 -5.09375 2.359375 -5 2.046875 -4.8125 C 1.734375 -4.632812 1.488281 -4.375 1.3125 -4.03125 C 1.144531 -3.6875 1.0625 -3.273438 1.0625 -2.796875 C 1.0625 -2.316406 1.144531 -1.90625 1.3125 -1.5625 C 1.488281 -1.21875 1.734375 -0.953125 2.046875 -0.765625 C 2.359375 -0.585938 2.722656 -0.5 3.140625 -0.5 Z M 3.140625 -0.5 "/></g></g></g><g fill="#ffffff" fill-opacity="1"><g transform="translate(258.816671, 275.526823)"><g><path d="M 0.234375 0 L 2.296875 -5.59375 L 3.015625 -5.59375 L 5.078125 0 L 4.359375 0 L 3.84375 -1.4375 L 1.46875 -1.4375 L 0.9375 0 Z M 1.65625 -1.984375 L 3.640625 -1.984375 L 2.65625 -4.75 Z M 1.65625 -1.984375 "/></g></g></g><g fill="#ffffff" fill-opacity="1"><g transform="translate(267.328741, 275.526823)"><g><path d="M 0.59375 0 L 0.59375 -5.59375 L 1.265625 -5.59375 L 1.265625 -0.53125 L 3.875 -0.53125 L 3.875 0 Z M 0.59375 0 "/></g></g></g></svg>